<mxfile host="app.diagrams.net" modified="2023-11-06T02:18:26.255Z" agent="Mozilla/5.0 (Macintosh; Intel Mac OS X 10_15_7) AppleWebKit/537.36 (KHTML, like Gecko) Chrome/115.0.0.0 Safari/537.36" etag="PY9b7cY1JOe7Fc5Yb1yV" version="22.0.8" type="github">
  <diagram name="第 1 页" id="DMLRb_-jvthfb_GOLyaX">
    <mxGraphModel dx="1294" dy="737" grid="1" gridSize="10" guides="1" tooltips="1" connect="1" arrows="1" fold="1" page="1" pageScale="1" pageWidth="827" pageHeight="1169" math="0" shadow="0">
      <root>
        <mxCell id="0" />
        <mxCell id="1" parent="0" />
        <mxCell id="PlZWdDpbJiLyR5dcW1TL-42" value="" style="edgeStyle=orthogonalEdgeStyle;rounded=0;orthogonalLoop=1;jettySize=auto;html=1;" parent="1" source="PlZWdDpbJiLyR5dcW1TL-1" target="PlZWdDpbJiLyR5dcW1TL-3" edge="1">
          <mxGeometry relative="1" as="geometry" />
        </mxCell>
        <mxCell id="PlZWdDpbJiLyR5dcW1TL-1" value="u1" style="rounded=0;whiteSpace=wrap;html=1;fillColor=#dae8fc;strokeColor=#6c8ebf;" parent="1" vertex="1">
          <mxGeometry x="40" y="400" width="120" height="60" as="geometry" />
        </mxCell>
        <mxCell id="PlZWdDpbJiLyR5dcW1TL-2" value="User()" style="rounded=0;whiteSpace=wrap;html=1;" parent="1" vertex="1">
          <mxGeometry x="280" y="270" width="120" height="60" as="geometry" />
        </mxCell>
        <mxCell id="PlZWdDpbJiLyR5dcW1TL-3" value="User.protoType" style="rounded=0;whiteSpace=wrap;html=1;fillColor=#dae8fc;strokeColor=#6c8ebf;" parent="1" vertex="1">
          <mxGeometry x="40" y="270" width="120" height="60" as="geometry" />
        </mxCell>
        <mxCell id="PlZWdDpbJiLyR5dcW1TL-4" value="" style="endArrow=classic;html=1;rounded=0;exitX=0.5;exitY=1;exitDx=0;exitDy=0;entryX=1;entryY=0.5;entryDx=0;entryDy=0;" parent="1" source="PlZWdDpbJiLyR5dcW1TL-2" target="PlZWdDpbJiLyR5dcW1TL-1" edge="1">
          <mxGeometry width="50" height="50" relative="1" as="geometry">
            <mxPoint x="390" y="260" as="sourcePoint" />
            <mxPoint x="440" y="210" as="targetPoint" />
            <Array as="points">
              <mxPoint x="340" y="430" />
            </Array>
          </mxGeometry>
        </mxCell>
        <mxCell id="PlZWdDpbJiLyR5dcW1TL-5" value="new" style="edgeLabel;html=1;align=center;verticalAlign=middle;resizable=0;points=[];" parent="PlZWdDpbJiLyR5dcW1TL-4" vertex="1" connectable="0">
          <mxGeometry x="-0.6375" relative="1" as="geometry">
            <mxPoint as="offset" />
          </mxGeometry>
        </mxCell>
        <mxCell id="PlZWdDpbJiLyR5dcW1TL-6" value="" style="endArrow=classic;html=1;rounded=0;entryX=0.5;entryY=1;entryDx=0;entryDy=0;exitX=0.5;exitY=0;exitDx=0;exitDy=0;fillColor=#f8cecc;strokeColor=#b85450;" parent="1" source="PlZWdDpbJiLyR5dcW1TL-1" target="PlZWdDpbJiLyR5dcW1TL-3" edge="1">
          <mxGeometry width="50" height="50" relative="1" as="geometry">
            <mxPoint x="100" y="380" as="sourcePoint" />
            <mxPoint x="440" y="270" as="targetPoint" />
          </mxGeometry>
        </mxCell>
        <mxCell id="PlZWdDpbJiLyR5dcW1TL-7" value="__proto__" style="edgeLabel;html=1;align=center;verticalAlign=middle;resizable=0;points=[];fontColor=#FF0000;" parent="PlZWdDpbJiLyR5dcW1TL-6" vertex="1" connectable="0">
          <mxGeometry x="-0.0571" relative="1" as="geometry">
            <mxPoint as="offset" />
          </mxGeometry>
        </mxCell>
        <mxCell id="PlZWdDpbJiLyR5dcW1TL-8" value="" style="endArrow=classic;html=1;rounded=0;exitX=0;exitY=0.5;exitDx=0;exitDy=0;fillColor=#d5e8d4;strokeColor=#82b366;" parent="1" source="PlZWdDpbJiLyR5dcW1TL-2" target="PlZWdDpbJiLyR5dcW1TL-3" edge="1">
          <mxGeometry width="50" height="50" relative="1" as="geometry">
            <mxPoint x="390" y="320" as="sourcePoint" />
            <mxPoint x="440" y="270" as="targetPoint" />
          </mxGeometry>
        </mxCell>
        <mxCell id="PlZWdDpbJiLyR5dcW1TL-9" value="prototype" style="edgeLabel;html=1;align=center;verticalAlign=middle;resizable=0;points=[];fontColor=#00994D;" parent="PlZWdDpbJiLyR5dcW1TL-8" vertex="1" connectable="0">
          <mxGeometry x="-0.0167" y="-3" relative="1" as="geometry">
            <mxPoint as="offset" />
          </mxGeometry>
        </mxCell>
        <mxCell id="PlZWdDpbJiLyR5dcW1TL-10" value="Object" style="rounded=0;whiteSpace=wrap;html=1;" parent="1" vertex="1">
          <mxGeometry x="280" y="140" width="120" height="60" as="geometry" />
        </mxCell>
        <mxCell id="PlZWdDpbJiLyR5dcW1TL-11" value="Object.protoType" style="rounded=0;whiteSpace=wrap;html=1;fillColor=#dae8fc;strokeColor=#6c8ebf;" parent="1" vertex="1">
          <mxGeometry x="40" y="140" width="120" height="60" as="geometry" />
        </mxCell>
        <mxCell id="PlZWdDpbJiLyR5dcW1TL-12" value="" style="endArrow=classic;html=1;rounded=0;entryX=0.5;entryY=1;entryDx=0;entryDy=0;exitX=0.5;exitY=0;exitDx=0;exitDy=0;fillColor=#f8cecc;strokeColor=#b85450;" parent="1" edge="1">
          <mxGeometry width="50" height="50" relative="1" as="geometry">
            <mxPoint x="99.5" y="270" as="sourcePoint" />
            <mxPoint x="99.5" y="200" as="targetPoint" />
          </mxGeometry>
        </mxCell>
        <mxCell id="PlZWdDpbJiLyR5dcW1TL-13" value="__proto__" style="edgeLabel;html=1;align=center;verticalAlign=middle;resizable=0;points=[];fontColor=#FF0000;" parent="PlZWdDpbJiLyR5dcW1TL-12" vertex="1" connectable="0">
          <mxGeometry x="-0.0571" relative="1" as="geometry">
            <mxPoint as="offset" />
          </mxGeometry>
        </mxCell>
        <mxCell id="PlZWdDpbJiLyR5dcW1TL-14" value="" style="endArrow=classic;html=1;rounded=0;exitX=0;exitY=0.5;exitDx=0;exitDy=0;fillColor=#d5e8d4;strokeColor=#82b366;" parent="1" edge="1">
          <mxGeometry width="50" height="50" relative="1" as="geometry">
            <mxPoint x="280" y="169.5" as="sourcePoint" />
            <mxPoint x="160" y="169.5" as="targetPoint" />
          </mxGeometry>
        </mxCell>
        <mxCell id="PlZWdDpbJiLyR5dcW1TL-15" value="prototype" style="edgeLabel;html=1;align=center;verticalAlign=middle;resizable=0;points=[];fontColor=#00994D;" parent="PlZWdDpbJiLyR5dcW1TL-14" vertex="1" connectable="0">
          <mxGeometry x="-0.0167" y="-3" relative="1" as="geometry">
            <mxPoint as="offset" />
          </mxGeometry>
        </mxCell>
        <mxCell id="PlZWdDpbJiLyR5dcW1TL-16" value="" style="endArrow=classic;html=1;rounded=0;entryX=0.75;entryY=0;entryDx=0;entryDy=0;" parent="1" target="PlZWdDpbJiLyR5dcW1TL-3" edge="1">
          <mxGeometry width="50" height="50" relative="1" as="geometry">
            <mxPoint x="340" y="200" as="sourcePoint" />
            <mxPoint x="160" y="290" as="targetPoint" />
            <Array as="points">
              <mxPoint x="340" y="240" />
              <mxPoint x="130" y="240" />
            </Array>
          </mxGeometry>
        </mxCell>
        <mxCell id="PlZWdDpbJiLyR5dcW1TL-17" value="new" style="edgeLabel;html=1;align=center;verticalAlign=middle;resizable=0;points=[];" parent="PlZWdDpbJiLyR5dcW1TL-16" vertex="1" connectable="0">
          <mxGeometry x="-0.6375" relative="1" as="geometry">
            <mxPoint as="offset" />
          </mxGeometry>
        </mxCell>
        <mxCell id="PlZWdDpbJiLyR5dcW1TL-19" value="null" style="rounded=0;whiteSpace=wrap;html=1;" parent="1" vertex="1">
          <mxGeometry x="40" y="10" width="120" height="60" as="geometry" />
        </mxCell>
        <mxCell id="PlZWdDpbJiLyR5dcW1TL-20" value="" style="endArrow=classic;html=1;rounded=0;entryX=0.5;entryY=1;entryDx=0;entryDy=0;exitX=0.5;exitY=0;exitDx=0;exitDy=0;fillColor=#f8cecc;strokeColor=#b85450;" parent="1" edge="1">
          <mxGeometry width="50" height="50" relative="1" as="geometry">
            <mxPoint x="99.5" y="140" as="sourcePoint" />
            <mxPoint x="99.5" y="70" as="targetPoint" />
          </mxGeometry>
        </mxCell>
        <mxCell id="PlZWdDpbJiLyR5dcW1TL-21" value="__proto__" style="edgeLabel;html=1;align=center;verticalAlign=middle;resizable=0;points=[];fontColor=#FF0000;" parent="PlZWdDpbJiLyR5dcW1TL-20" vertex="1" connectable="0">
          <mxGeometry x="-0.0571" relative="1" as="geometry">
            <mxPoint as="offset" />
          </mxGeometry>
        </mxCell>
        <mxCell id="PlZWdDpbJiLyR5dcW1TL-22" value="Function" style="rounded=0;whiteSpace=wrap;html=1;" parent="1" vertex="1">
          <mxGeometry x="760" y="270" width="120" height="60" as="geometry" />
        </mxCell>
        <mxCell id="PlZWdDpbJiLyR5dcW1TL-23" value="Function.protoType" style="rounded=0;whiteSpace=wrap;html=1;fillColor=#dae8fc;strokeColor=#6c8ebf;" parent="1" vertex="1">
          <mxGeometry x="520" y="270" width="120" height="60" as="geometry" />
        </mxCell>
        <mxCell id="PlZWdDpbJiLyR5dcW1TL-25" value="" style="endArrow=classic;html=1;rounded=0;exitX=0;exitY=0.5;exitDx=0;exitDy=0;fillColor=#d5e8d4;strokeColor=#82b366;" parent="1" edge="1">
          <mxGeometry width="50" height="50" relative="1" as="geometry">
            <mxPoint x="760" y="299.29" as="sourcePoint" />
            <mxPoint x="640" y="299.29" as="targetPoint" />
          </mxGeometry>
        </mxCell>
        <mxCell id="PlZWdDpbJiLyR5dcW1TL-26" value="prototype" style="edgeLabel;html=1;align=center;verticalAlign=middle;resizable=0;points=[];fontColor=#00994D;" parent="PlZWdDpbJiLyR5dcW1TL-25" vertex="1" connectable="0">
          <mxGeometry x="-0.0167" y="-3" relative="1" as="geometry">
            <mxPoint as="offset" />
          </mxGeometry>
        </mxCell>
        <mxCell id="PlZWdDpbJiLyR5dcW1TL-27" value="" style="endArrow=classic;html=1;rounded=0;entryX=1;entryY=0.75;entryDx=0;entryDy=0;exitX=0;exitY=0.75;exitDx=0;exitDy=0;fillColor=#f8cecc;strokeColor=#b85450;" parent="1" source="PlZWdDpbJiLyR5dcW1TL-22" target="PlZWdDpbJiLyR5dcW1TL-23" edge="1">
          <mxGeometry width="50" height="50" relative="1" as="geometry">
            <mxPoint x="770" y="450" as="sourcePoint" />
            <mxPoint x="770" y="380" as="targetPoint" />
          </mxGeometry>
        </mxCell>
        <mxCell id="PlZWdDpbJiLyR5dcW1TL-28" value="__proto__" style="edgeLabel;html=1;align=center;verticalAlign=middle;resizable=0;points=[];fontColor=#FF0000;" parent="PlZWdDpbJiLyR5dcW1TL-27" vertex="1" connectable="0">
          <mxGeometry x="-0.0571" relative="1" as="geometry">
            <mxPoint as="offset" />
          </mxGeometry>
        </mxCell>
        <mxCell id="PlZWdDpbJiLyR5dcW1TL-29" value="" style="endArrow=classic;html=1;rounded=0;entryX=0;entryY=0.5;entryDx=0;entryDy=0;fillColor=#f8cecc;strokeColor=#b85450;" parent="1" source="PlZWdDpbJiLyR5dcW1TL-2" target="PlZWdDpbJiLyR5dcW1TL-23" edge="1">
          <mxGeometry width="50" height="50" relative="1" as="geometry">
            <mxPoint x="490" y="370" as="sourcePoint" />
            <mxPoint x="490" y="300" as="targetPoint" />
          </mxGeometry>
        </mxCell>
        <mxCell id="PlZWdDpbJiLyR5dcW1TL-31" value="" style="endArrow=classic;html=1;rounded=0;exitX=1;exitY=0.5;exitDx=0;exitDy=0;entryX=0.5;entryY=0;entryDx=0;entryDy=0;" parent="1" source="PlZWdDpbJiLyR5dcW1TL-10" target="PlZWdDpbJiLyR5dcW1TL-23" edge="1">
          <mxGeometry width="50" height="50" relative="1" as="geometry">
            <mxPoint x="350" y="340" as="sourcePoint" />
            <mxPoint x="170" y="440" as="targetPoint" />
            <Array as="points">
              <mxPoint x="580" y="170" />
            </Array>
          </mxGeometry>
        </mxCell>
        <mxCell id="PlZWdDpbJiLyR5dcW1TL-32" value="new" style="edgeLabel;html=1;align=center;verticalAlign=middle;resizable=0;points=[];" parent="PlZWdDpbJiLyR5dcW1TL-31" vertex="1" connectable="0">
          <mxGeometry x="-0.6375" relative="1" as="geometry">
            <mxPoint as="offset" />
          </mxGeometry>
        </mxCell>
        <mxCell id="PlZWdDpbJiLyR5dcW1TL-33" value="" style="endArrow=classic;html=1;rounded=0;exitX=0.5;exitY=1;exitDx=0;exitDy=0;entryX=0.663;entryY=1.038;entryDx=0;entryDy=0;entryPerimeter=0;" parent="1" source="PlZWdDpbJiLyR5dcW1TL-22" target="PlZWdDpbJiLyR5dcW1TL-2" edge="1">
          <mxGeometry width="50" height="50" relative="1" as="geometry">
            <mxPoint x="350" y="340" as="sourcePoint" />
            <mxPoint x="170" y="440" as="targetPoint" />
            <Array as="points">
              <mxPoint x="820" y="430" />
              <mxPoint x="360" y="430" />
            </Array>
          </mxGeometry>
        </mxCell>
        <mxCell id="PlZWdDpbJiLyR5dcW1TL-34" value="new" style="edgeLabel;html=1;align=center;verticalAlign=middle;resizable=0;points=[];" parent="PlZWdDpbJiLyR5dcW1TL-33" vertex="1" connectable="0">
          <mxGeometry x="-0.6375" relative="1" as="geometry">
            <mxPoint as="offset" />
          </mxGeometry>
        </mxCell>
        <mxCell id="PlZWdDpbJiLyR5dcW1TL-72" value="" style="group" parent="1" vertex="1" connectable="0">
          <mxGeometry x="600" y="560" width="360" height="450" as="geometry" />
        </mxCell>
        <mxCell id="PlZWdDpbJiLyR5dcW1TL-49" value="u1" style="rounded=0;whiteSpace=wrap;html=1;" parent="PlZWdDpbJiLyR5dcW1TL-72" vertex="1">
          <mxGeometry y="390" width="120" height="60" as="geometry" />
        </mxCell>
        <mxCell id="PlZWdDpbJiLyR5dcW1TL-50" value="User()" style="rounded=0;whiteSpace=wrap;html=1;" parent="PlZWdDpbJiLyR5dcW1TL-72" vertex="1">
          <mxGeometry x="240" y="260" width="120" height="60" as="geometry" />
        </mxCell>
        <mxCell id="PlZWdDpbJiLyR5dcW1TL-51" value="User.protoType" style="rounded=0;whiteSpace=wrap;html=1;" parent="PlZWdDpbJiLyR5dcW1TL-72" vertex="1">
          <mxGeometry y="260" width="120" height="60" as="geometry" />
        </mxCell>
        <mxCell id="PlZWdDpbJiLyR5dcW1TL-52" value="" style="endArrow=classic;html=1;rounded=0;exitX=0.5;exitY=1;exitDx=0;exitDy=0;entryX=1;entryY=0.5;entryDx=0;entryDy=0;" parent="PlZWdDpbJiLyR5dcW1TL-72" source="PlZWdDpbJiLyR5dcW1TL-50" target="PlZWdDpbJiLyR5dcW1TL-49" edge="1">
          <mxGeometry width="50" height="50" relative="1" as="geometry">
            <mxPoint x="350" y="250" as="sourcePoint" />
            <mxPoint x="400" y="200" as="targetPoint" />
            <Array as="points">
              <mxPoint x="300" y="420" />
            </Array>
          </mxGeometry>
        </mxCell>
        <mxCell id="PlZWdDpbJiLyR5dcW1TL-53" value="new" style="edgeLabel;html=1;align=center;verticalAlign=middle;resizable=0;points=[];" parent="PlZWdDpbJiLyR5dcW1TL-52" vertex="1" connectable="0">
          <mxGeometry x="-0.6375" relative="1" as="geometry">
            <mxPoint as="offset" />
          </mxGeometry>
        </mxCell>
        <mxCell id="PlZWdDpbJiLyR5dcW1TL-55" value="Object" style="rounded=0;whiteSpace=wrap;html=1;" parent="PlZWdDpbJiLyR5dcW1TL-72" vertex="1">
          <mxGeometry x="240" y="130" width="120" height="60" as="geometry" />
        </mxCell>
        <mxCell id="PlZWdDpbJiLyR5dcW1TL-56" value="Object.protoType" style="rounded=0;whiteSpace=wrap;html=1;" parent="PlZWdDpbJiLyR5dcW1TL-72" vertex="1">
          <mxGeometry y="130" width="120" height="60" as="geometry" />
        </mxCell>
        <mxCell id="PlZWdDpbJiLyR5dcW1TL-57" value="" style="endArrow=classic;html=1;rounded=0;exitX=0.5;exitY=0;exitDx=0;exitDy=0;fillColor=#f8cecc;strokeColor=#b85450;" parent="PlZWdDpbJiLyR5dcW1TL-72" edge="1">
          <mxGeometry width="50" height="50" relative="1" as="geometry">
            <mxPoint x="59.5" y="260" as="sourcePoint" />
            <mxPoint x="60" y="190" as="targetPoint" />
          </mxGeometry>
        </mxCell>
        <mxCell id="PlZWdDpbJiLyR5dcW1TL-58" value="__proto__" style="edgeLabel;html=1;align=center;verticalAlign=middle;resizable=0;points=[];fontColor=#FF0000;" parent="PlZWdDpbJiLyR5dcW1TL-57" vertex="1" connectable="0">
          <mxGeometry x="-0.0571" relative="1" as="geometry">
            <mxPoint as="offset" />
          </mxGeometry>
        </mxCell>
        <mxCell id="PlZWdDpbJiLyR5dcW1TL-60" value="null" style="rounded=0;whiteSpace=wrap;html=1;" parent="PlZWdDpbJiLyR5dcW1TL-72" vertex="1">
          <mxGeometry width="120" height="60" as="geometry" />
        </mxCell>
        <mxCell id="PlZWdDpbJiLyR5dcW1TL-62" value="" style="endArrow=classic;html=1;rounded=0;entryX=0.5;entryY=1;entryDx=0;entryDy=0;exitX=0.5;exitY=0;exitDx=0;exitDy=0;fillColor=#f8cecc;strokeColor=#b85450;" parent="PlZWdDpbJiLyR5dcW1TL-72" edge="1">
          <mxGeometry width="50" height="50" relative="1" as="geometry">
            <mxPoint x="58.17999999999995" y="130" as="sourcePoint" />
            <mxPoint x="58.17999999999995" y="60" as="targetPoint" />
          </mxGeometry>
        </mxCell>
        <mxCell id="PlZWdDpbJiLyR5dcW1TL-63" value="__proto__" style="edgeLabel;html=1;align=center;verticalAlign=middle;resizable=0;points=[];fontColor=#FF0000;" parent="PlZWdDpbJiLyR5dcW1TL-62" vertex="1" connectable="0">
          <mxGeometry x="-0.0571" relative="1" as="geometry">
            <mxPoint as="offset" />
          </mxGeometry>
        </mxCell>
        <mxCell id="PlZWdDpbJiLyR5dcW1TL-64" value="" style="endArrow=classic;html=1;rounded=0;exitX=0;exitY=0.5;exitDx=0;exitDy=0;fillColor=#d5e8d4;strokeColor=#82b366;" parent="PlZWdDpbJiLyR5dcW1TL-72" edge="1">
          <mxGeometry width="50" height="50" relative="1" as="geometry">
            <mxPoint x="240" y="160" as="sourcePoint" />
            <mxPoint x="120" y="160" as="targetPoint" />
          </mxGeometry>
        </mxCell>
        <mxCell id="PlZWdDpbJiLyR5dcW1TL-65" value="prototype" style="edgeLabel;html=1;align=center;verticalAlign=middle;resizable=0;points=[];fontColor=#00994D;" parent="PlZWdDpbJiLyR5dcW1TL-64" vertex="1" connectable="0">
          <mxGeometry x="-0.0167" y="-3" relative="1" as="geometry">
            <mxPoint as="offset" />
          </mxGeometry>
        </mxCell>
        <mxCell id="PlZWdDpbJiLyR5dcW1TL-66" value="" style="endArrow=classic;html=1;rounded=0;exitX=0;exitY=0.5;exitDx=0;exitDy=0;fillColor=#d5e8d4;strokeColor=#82b366;" parent="PlZWdDpbJiLyR5dcW1TL-72" edge="1">
          <mxGeometry width="50" height="50" relative="1" as="geometry">
            <mxPoint x="240" y="289.09000000000003" as="sourcePoint" />
            <mxPoint x="120" y="289.09000000000003" as="targetPoint" />
          </mxGeometry>
        </mxCell>
        <mxCell id="PlZWdDpbJiLyR5dcW1TL-67" value="prototype" style="edgeLabel;html=1;align=center;verticalAlign=middle;resizable=0;points=[];fontColor=#00994D;" parent="PlZWdDpbJiLyR5dcW1TL-66" vertex="1" connectable="0">
          <mxGeometry x="-0.0167" y="-3" relative="1" as="geometry">
            <mxPoint as="offset" />
          </mxGeometry>
        </mxCell>
        <mxCell id="PlZWdDpbJiLyR5dcW1TL-68" value="" style="endArrow=classic;html=1;rounded=0;entryX=0.75;entryY=0;entryDx=0;entryDy=0;" parent="PlZWdDpbJiLyR5dcW1TL-72" edge="1">
          <mxGeometry width="50" height="50" relative="1" as="geometry">
            <mxPoint x="302" y="190" as="sourcePoint" />
            <mxPoint x="92" y="260" as="targetPoint" />
            <Array as="points">
              <mxPoint x="302" y="230" />
              <mxPoint x="92" y="230" />
            </Array>
          </mxGeometry>
        </mxCell>
        <mxCell id="PlZWdDpbJiLyR5dcW1TL-69" value="new" style="edgeLabel;html=1;align=center;verticalAlign=middle;resizable=0;points=[];" parent="PlZWdDpbJiLyR5dcW1TL-68" vertex="1" connectable="0">
          <mxGeometry x="-0.6375" relative="1" as="geometry">
            <mxPoint as="offset" />
          </mxGeometry>
        </mxCell>
        <mxCell id="PlZWdDpbJiLyR5dcW1TL-70" value="" style="endArrow=classic;html=1;rounded=0;exitX=0.5;exitY=0;exitDx=0;exitDy=0;fillColor=#f8cecc;strokeColor=#b85450;" parent="PlZWdDpbJiLyR5dcW1TL-72" edge="1">
          <mxGeometry width="50" height="50" relative="1" as="geometry">
            <mxPoint x="60.5" y="389" as="sourcePoint" />
            <mxPoint x="61" y="319" as="targetPoint" />
          </mxGeometry>
        </mxCell>
        <mxCell id="PlZWdDpbJiLyR5dcW1TL-71" value="__proto__" style="edgeLabel;html=1;align=center;verticalAlign=middle;resizable=0;points=[];fontColor=#FF0000;" parent="PlZWdDpbJiLyR5dcW1TL-70" vertex="1" connectable="0">
          <mxGeometry x="-0.0571" relative="1" as="geometry">
            <mxPoint as="offset" />
          </mxGeometry>
        </mxCell>
        <mxCell id="PlZWdDpbJiLyR5dcW1TL-77" value="" style="group" parent="1" vertex="1" connectable="0">
          <mxGeometry x="40" y="668" width="360" height="192" as="geometry" />
        </mxCell>
        <mxCell id="PlZWdDpbJiLyR5dcW1TL-36" value="Object" style="rounded=0;whiteSpace=wrap;html=1;" parent="PlZWdDpbJiLyR5dcW1TL-77" vertex="1">
          <mxGeometry y="132" width="120" height="60" as="geometry" />
        </mxCell>
        <mxCell id="PlZWdDpbJiLyR5dcW1TL-37" value="Function" style="rounded=0;whiteSpace=wrap;html=1;" parent="PlZWdDpbJiLyR5dcW1TL-77" vertex="1">
          <mxGeometry x="240" width="120" height="60" as="geometry" />
        </mxCell>
        <mxCell id="PlZWdDpbJiLyR5dcW1TL-38" value="Function.protoType" style="rounded=0;whiteSpace=wrap;html=1;" parent="PlZWdDpbJiLyR5dcW1TL-77" vertex="1">
          <mxGeometry width="120" height="60" as="geometry" />
        </mxCell>
        <mxCell id="PlZWdDpbJiLyR5dcW1TL-40" value="" style="endArrow=classic;html=1;rounded=0;entryX=1;entryY=0.5;entryDx=0;entryDy=0;" parent="PlZWdDpbJiLyR5dcW1TL-77" edge="1">
          <mxGeometry width="50" height="50" relative="1" as="geometry">
            <mxPoint x="300" y="62" as="sourcePoint" />
            <mxPoint x="120" y="152" as="targetPoint" />
            <Array as="points">
              <mxPoint x="300" y="152" />
            </Array>
          </mxGeometry>
        </mxCell>
        <mxCell id="PlZWdDpbJiLyR5dcW1TL-41" value="new" style="edgeLabel;html=1;align=center;verticalAlign=middle;resizable=0;points=[];" parent="PlZWdDpbJiLyR5dcW1TL-40" vertex="1" connectable="0">
          <mxGeometry x="-0.6375" relative="1" as="geometry">
            <mxPoint as="offset" />
          </mxGeometry>
        </mxCell>
        <mxCell id="PlZWdDpbJiLyR5dcW1TL-43" value="" style="endArrow=classic;html=1;rounded=0;entryX=0.5;entryY=1;entryDx=0;entryDy=0;exitX=0.5;exitY=0;exitDx=0;exitDy=0;fillColor=#f8cecc;strokeColor=#b85450;" parent="PlZWdDpbJiLyR5dcW1TL-77" edge="1">
          <mxGeometry width="50" height="50" relative="1" as="geometry">
            <mxPoint x="80" y="130" as="sourcePoint" />
            <mxPoint x="80" y="60" as="targetPoint" />
          </mxGeometry>
        </mxCell>
        <mxCell id="PlZWdDpbJiLyR5dcW1TL-44" value="__proto__" style="edgeLabel;html=1;align=center;verticalAlign=middle;resizable=0;points=[];fontColor=#FF0000;" parent="PlZWdDpbJiLyR5dcW1TL-43" vertex="1" connectable="0">
          <mxGeometry x="-0.0571" relative="1" as="geometry">
            <mxPoint as="offset" />
          </mxGeometry>
        </mxCell>
        <mxCell id="PlZWdDpbJiLyR5dcW1TL-45" value="" style="endArrow=classic;html=1;rounded=0;exitX=0;exitY=0.5;exitDx=0;exitDy=0;fillColor=#d5e8d4;strokeColor=#82b366;" parent="PlZWdDpbJiLyR5dcW1TL-77" edge="1">
          <mxGeometry width="50" height="50" relative="1" as="geometry">
            <mxPoint x="240" y="21.089999999999918" as="sourcePoint" />
            <mxPoint x="120" y="21.089999999999918" as="targetPoint" />
          </mxGeometry>
        </mxCell>
        <mxCell id="PlZWdDpbJiLyR5dcW1TL-46" value="prototype" style="edgeLabel;html=1;align=center;verticalAlign=middle;resizable=0;points=[];fontColor=#00994D;" parent="PlZWdDpbJiLyR5dcW1TL-45" vertex="1" connectable="0">
          <mxGeometry x="-0.0167" y="-3" relative="1" as="geometry">
            <mxPoint as="offset" />
          </mxGeometry>
        </mxCell>
        <mxCell id="PlZWdDpbJiLyR5dcW1TL-47" value="" style="endArrow=classic;html=1;rounded=0;entryX=1;entryY=0.75;entryDx=0;entryDy=0;exitX=0;exitY=0.75;exitDx=0;exitDy=0;fillColor=#f8cecc;strokeColor=#b85450;" parent="PlZWdDpbJiLyR5dcW1TL-77" edge="1">
          <mxGeometry width="50" height="50" relative="1" as="geometry">
            <mxPoint x="240" y="36" as="sourcePoint" />
            <mxPoint x="120" y="36" as="targetPoint" />
          </mxGeometry>
        </mxCell>
        <mxCell id="PlZWdDpbJiLyR5dcW1TL-48" value="__proto__" style="edgeLabel;html=1;align=center;verticalAlign=middle;resizable=0;points=[];fontColor=#FF0000;" parent="PlZWdDpbJiLyR5dcW1TL-47" vertex="1" connectable="0">
          <mxGeometry x="-0.0571" relative="1" as="geometry">
            <mxPoint as="offset" />
          </mxGeometry>
        </mxCell>
        <mxCell id="PlZWdDpbJiLyR5dcW1TL-75" value="" style="endArrow=classic;html=1;rounded=0;" parent="PlZWdDpbJiLyR5dcW1TL-77" edge="1">
          <mxGeometry width="50" height="50" relative="1" as="geometry">
            <mxPoint x="40" y="131" as="sourcePoint" />
            <mxPoint x="39" y="62" as="targetPoint" />
          </mxGeometry>
        </mxCell>
        <mxCell id="PlZWdDpbJiLyR5dcW1TL-76" value="new" style="edgeLabel;html=1;align=center;verticalAlign=middle;resizable=0;points=[];" parent="PlZWdDpbJiLyR5dcW1TL-75" vertex="1" connectable="0">
          <mxGeometry x="0.0351" relative="1" as="geometry">
            <mxPoint as="offset" />
          </mxGeometry>
        </mxCell>
        <mxCell id="PlZWdDpbJiLyR5dcW1TL-78" value="" style="endArrow=classic;html=1;rounded=0;fillColor=#f8cecc;strokeColor=#b85450;entryX=0.662;entryY=0.021;entryDx=0;entryDy=0;entryPerimeter=0;" parent="1" target="PlZWdDpbJiLyR5dcW1TL-23" edge="1">
          <mxGeometry width="50" height="50" relative="1" as="geometry">
            <mxPoint x="400" y="160" as="sourcePoint" />
            <mxPoint x="610" y="270" as="targetPoint" />
            <Array as="points">
              <mxPoint x="600" y="160" />
            </Array>
          </mxGeometry>
        </mxCell>
        <mxCell id="PlZWdDpbJiLyR5dcW1TL-79" value="__proto__" style="edgeLabel;html=1;align=center;verticalAlign=middle;resizable=0;points=[];fontColor=#FF0000;" parent="PlZWdDpbJiLyR5dcW1TL-78" vertex="1" connectable="0">
          <mxGeometry x="-0.0571" relative="1" as="geometry">
            <mxPoint as="offset" />
          </mxGeometry>
        </mxCell>
        <mxCell id="PlZWdDpbJiLyR5dcW1TL-80" value="" style="endArrow=classic;html=1;rounded=0;exitX=0.5;exitY=0;exitDx=0;exitDy=0;entryX=1;entryY=0;entryDx=0;entryDy=0;" parent="1" edge="1">
          <mxGeometry width="50" height="50" relative="1" as="geometry">
            <mxPoint x="820" y="279" as="sourcePoint" />
            <mxPoint x="400" y="149" as="targetPoint" />
            <Array as="points">
              <mxPoint x="820" y="149" />
            </Array>
          </mxGeometry>
        </mxCell>
        <mxCell id="PlZWdDpbJiLyR5dcW1TL-81" value="new" style="edgeLabel;html=1;align=center;verticalAlign=middle;resizable=0;points=[];" parent="PlZWdDpbJiLyR5dcW1TL-80" vertex="1" connectable="0">
          <mxGeometry x="-0.6375" relative="1" as="geometry">
            <mxPoint as="offset" />
          </mxGeometry>
        </mxCell>
        <mxCell id="PlZWdDpbJiLyR5dcW1TL-82" value="" style="endArrow=classic;html=1;rounded=0;fillColor=#f8cecc;strokeColor=#b85450;entryX=1;entryY=1;entryDx=0;entryDy=0;" parent="1" edge="1">
          <mxGeometry width="50" height="50" relative="1" as="geometry">
            <mxPoint x="549" y="270" as="sourcePoint" />
            <mxPoint x="149" y="203" as="targetPoint" />
            <Array as="points">
              <mxPoint x="549" y="250" />
              <mxPoint x="149" y="250" />
            </Array>
          </mxGeometry>
        </mxCell>
        <mxCell id="PlZWdDpbJiLyR5dcW1TL-83" value="__proto__" style="edgeLabel;html=1;align=center;verticalAlign=middle;resizable=0;points=[];fontColor=#FF0000;" parent="PlZWdDpbJiLyR5dcW1TL-82" vertex="1" connectable="0">
          <mxGeometry x="-0.0571" relative="1" as="geometry">
            <mxPoint as="offset" />
          </mxGeometry>
        </mxCell>
      </root>
    </mxGraphModel>
  </diagram>
</mxfile>
